<?xml version="1.0" encoding="UTF-8"?>
<svg id="Layer_1" xmlns="http://www.w3.org/2000/svg" version="1.1" viewBox="0 0 512 512">
  <!-- Generator: Adobe Illustrator 29.8.1, SVG Export Plug-In . SVG Version: 2.1.1 Build 2)  -->
  <defs>
    <style>
      .st0 {
        fill: #97999c;
        stroke: #6c6f71;
        stroke-linecap: round;
        stroke-linejoin: round;
      }

      .st0, .st1 {
        stroke-width: 25px;
      }

      .st2 {
        fill: #bababa;
      }

      .st1 {
        fill: #ffd63f;
        stroke: #b69b39;
        stroke-miterlimit: 10;
      }

      .st3 {
        fill: #ffe480;
      }
    </style>
  </defs>
  <g>
    <circle class="st1" cx="156.17" cy="218.19" r="106.46"/>
    <circle class="st3" cx="156.17" cy="218.19" r="77.85"/>
  </g>
  <g>
    <path class="st0" d="M400.38,264.71c14.47,14.07,22.44,34.53,23.06,54.61,78.32-5.48,87.06,113.38,9.55,119.17-97.26,7.27-203.69-5.44-301.91-.26-51.55-8.3-80.11-60.58-57.11-108.51,13.62-28.39,47.77-45.29,78.49-39.71,1.85-94.83,124.57-123.97,170.77-42.3,26.54-7.31,56.94-2.64,77.15,17.01Z"/>
    <path class="st2" d="M360,284.53c10.43,10.14,16.17,24.88,16.61,39.33,56.42-3.95,62.71,81.67,6.88,85.84-70.06,5.24-146.73-3.92-217.47-.19-37.14-5.98-57.7-43.64-41.14-78.16,9.81-20.45,34.41-32.62,56.54-28.61,1.33-68.31,89.73-89.3,123.01-30.47,19.12-5.26,41.01-1.9,55.57,12.25Z"/>
  </g>
</svg>